
<svg width="129" height="29" viewBox="0 0 129 29" fill="none" xmlns="http://www.w3.org/2000/svg">

<path d="M1230 2500 l0 -200 40 0 40 0 0 48 c0 35 5 50 19 59 17 11 24 5 61
-48 38 -55 44 -59 81 -59 21 0 39 2 39 6 0 3 -25 39 -55 79 -30 41 -55 78 -55
82 0 4 26 33 57 65 l57 58 -46 0 c-45 0 -49 -2 -102 -66 l-56 -65 0 120 0 121
-40 0 -40 0 0 -200z"/>
<path d="M2722 2630 c2 -39 1 -70 -2 -70 -3 0 -14 7 -24 15 -31 23 -99 19
-124 -7 -60 -65 -55 -207 9 -252 33 -23 94 -21 119 4 11 11 22 20 24 20 2 0 6
-9 9 -20 4 -15 14 -20 36 -20 l31 0 0 200 0 200 -41 0 -41 0 4 -70z m-11 -116
c7 -9 13 -40 13 -69 0 -63 -15 -85 -60 -85 -40 0 -56 23 -56 85 0 62 16 85 56
85 19 0 40 -7 47 -16z"/>
<path d="M2883 2684 c-10 -26 11 -49 43 -49 26 0 29 4 29 30 0 27 -4 30 -33
33 -23 2 -34 -2 -39 -14z"/>
<path d="M3710 2500 l0 -200 35 0 35 0 0 200 0 200 -35 0 -35 0 0 -200z"/>
<path d="M560 2651 c0 -29 2 -30 53 -33 l52 -3 3 -157 3 -158 34 0 34 0 3 158
3 157 53 3 c50 3 52 4 52 33 l0 29 -145 0 -145 0 0 -29z"/>
<path d="M3380 2491 l0 -191 35 0 35 0 0 70 0 70 41 0 c82 0 139 49 139 119 0
81 -42 111 -167 119 l-83 5 0 -192z m160 109 c42 -42 12 -100 -51 -100 l-39 0
0 60 0 60 35 0 c22 0 43 -8 55 -20z"/>
<path d="M944 2571 c-42 -26 -57 -68 -52 -142 4 -56 8 -65 41 -95 32 -29 44
-34 88 -34 94 0 139 48 139 147 0 63 -21 107 -62 129 -35 20 -118 17 -154 -5z
m127 -58 c18 -21 17 -116 0 -137 -8 -9 -28 -16 -46 -16 -44 0 -59 22 -59 84
-1 63 15 86 59 86 18 0 39 -7 46 -17z"/>
<path d="M1604 2571 c-42 -26 -57 -68 -52 -142 4 -56 8 -65 41 -95 32 -29 44
-34 88 -34 94 0 139 48 139 147 0 63 -21 107 -62 129 -35 20 -118 17 -154 -5z
m127 -58 c18 -21 17 -116 0 -137 -8 -9 -28 -16 -46 -16 -44 0 -59 22 -59 84
-1 63 15 86 59 86 18 0 39 -7 46 -17z"/>
<path d="M1892 2383 l3 -208 38 -3 37 -3 0 81 0 81 22 -15 c29 -21 87 -20 117
0 64 45 69 187 9 252 -25 26 -93 30 -124 7 -25 -19 -34 -19 -34 0 0 10 -11 15
-35 15 l-35 0 2 -207z m176 129 c15 -19 16 -106 2 -133 -15 -27 -64 -25 -84 3
-19 27 -21 108 -3 130 23 30 60 30 85 0z"/>
<path d="M2262 2565 c-34 -29 -57 -101 -46 -149 17 -82 61 -116 151 -116 77 0
93 8 93 42 0 24 -3 29 -17 24 -9 -4 -36 -10 -59 -13 -36 -5 -46 -2 -68 20 -48
48 -37 57 69 57 92 0 95 1 95 23 0 89 -48 137 -137 137 -40 0 -58 -5 -81 -25z
m132 -47 c9 -12 16 -26 16 -30 0 -5 -27 -8 -60 -8 -33 0 -60 3 -60 8 0 23 34
52 60 52 18 0 34 -8 44 -22z"/>
<path d="M2880 2445 l0 -145 40 0 40 0 0 145 0 145 -40 0 -40 0 0 -145z"/>
<path d="M3076 2577 c-15 -11 -17 -17 -7 -35 10 -18 15 -20 37 -12 42 16 82
12 94 -9 17 -33 12 -38 -52 -45 -83 -8 -112 -30 -116 -86 -3 -33 2 -48 19 -66
29 -31 98 -33 139 -4 l29 20 6 -20 c4 -13 15 -20 31 -20 l24 0 0 114 c0 63 -3
122 -6 131 -4 8 -19 22 -35 30 -35 19 -139 20 -163 2z m132 -164 c7 -46 -74
-86 -96 -47 -14 25 -3 52 27 63 40 15 66 9 69 -16z"/>
<path d="M3903 2580 c-19 -8 -21 -13 -14 -32 5 -13 15 -21 23 -19 65 21 118 7
118 -29 0 -14 -12 -19 -57 -25 -96 -12 -123 -33 -123 -96 0 -70 95 -105 155
-58 22 18 29 20 36 8 5 -8 9 -17 9 -21 0 -5 11 -8 25 -8 l25 0 0 116 c0 114 0
116 -29 145 -26 26 -36 29 -88 28 -32 0 -68 -4 -80 -9z m127 -167 c0 -35 -27
-63 -60 -63 -34 0 -54 22 -45 50 8 24 36 38 78 39 23 1 27 -3 27 -26z"/>
<path d="M4169 2543 c10 -27 35 -88 55 -137 20 -50 36 -99 36 -111 0 -27 -40
-65 -68 -65 -17 0 -22 -6 -22 -25 0 -22 4 -25 40 -25 68 0 91 31 165 229 36
95 65 175 65 178 0 2 -17 3 -37 1 l-37 -3 -33 -100 c-18 -55 -33 -102 -33
-105 0 -3 -17 43 -36 103 l-35 107 -39 0 -40 0 19 -47z"/>

</svg>
